<svg xmlns="http://www.w3.org/2000/svg" width="66" height="32"><path fill="#8e8f99" d="M10.207 9.77h-.002c-1.862 0-3.371 1.361-3.371 3.04v.002c0 1.679 1.509 3.04 3.371 3.04h.002c1.862 0 3.371-1.361 3.371-3.04v-.002c0-1.679-1.509-3.04-3.371-3.04zm24.885-.972c-.005-2.332-1.035-4.567-2.863-6.215S27.922.005 25.336 0c-2.587.004-5.067.932-6.896 2.582s-2.86 3.884-2.865 6.217v12.858s19.515-1.96 19.517-12.856v-.002zM0 25.877c.005 1.622.721 3.177 1.994 4.325s2.996 1.794 4.796 1.799c1.799-.005 3.523-.651 4.795-1.798s1.989-2.701 1.994-4.323v-8.947S0 18.298 0 25.878zm6.789 1.603c-.352 0-.695-.094-.988-.27s-.52-.426-.655-.719-.17-.615-.101-.926c.069-.311.238-.597.487-.821s.565-.377.91-.439c.345-.062.702-.03 1.027.091s.603.327.798.59c.195.264.3.573.3.891.001.211-.044.42-.133.615s-.22.373-.385.522c-.165.149-.362.268-.578.349s-.448.123-.682.123v-.006zm12.418-2.883v3.329h-.686v-3.329h.686zm1.326 1.422v.535h-1.514v-.535h1.514zm.16-1.422v.537h-1.674v-.537h1.674zm3.133 1.587v.158c0 .253-.034.48-.103.681s-.165.373-.29.515a1.25 1.25 0 0 1-.448.322 1.423 1.423 0 0 1-.574.112c-.209 0-.4-.037-.574-.112a1.29 1.29 0 0 1-.448-.322 1.5 1.5 0 0 1-.295-.514 2.09 2.09 0 0 1-.103-.681v-.158c0-.255.034-.482.103-.681.069-.201.165-.373.29-.514.127-.142.276-.25.448-.325.174-.075.365-.112.574-.112.21 0 .402.037.574.112.174.075.323.183.448.325.127.142.224.313.293.514.07.2.105.427.105.681zm-.693.158v-.162c0-.177-.016-.332-.048-.466s-.079-.247-.142-.338a.623.623 0 0 0-.538-.277.614.614 0 0 0-.535.277c-.061.091-.107.204-.139.338s-.048.29-.048.466v.162c0 .175.016.331.048.466.032.134.079.248.142.341.063.091.139.161.229.208s.193.071.309.071c.116 0 .219-.024.309-.071s.165-.117.226-.208c.061-.093.107-.207.139-.341.032-.136.048-.291.048-.466zm2.92.713a.447.447 0 0 0-.027-.16.308.308 0 0 0-.096-.133c-.047-.041-.114-.082-.199-.121s-.196-.081-.332-.123a4.267 4.267 0 0 1-.43-.165 1.775 1.775 0 0 1-.357-.213.952.952 0 0 1-.242-.286.786.786 0 0 1-.087-.377.79.79 0 0 1 .091-.377.872.872 0 0 1 .256-.293c.11-.082.239-.146.389-.19.151-.044.316-.066.496-.066.245 0 .46.044.642.133s.325.21.425.364c.102.154.153.33.153.528h-.681a.513.513 0 0 0-.062-.256.421.421 0 0 0-.183-.176.648.648 0 0 0-.306-.064.7.7 0 0 0-.297.055.393.393 0 0 0-.178.144.351.351 0 0 0-.059.201c0 .056.014.107.041.153.029.046.072.088.128.128s.126.077.208.112c.082.035.178.069.286.103.181.055.341.117.478.185.139.069.255.146.348.231a.851.851 0 0 1 .281.658c0 .145-.028.274-.085.389s-.138.211-.245.29c-.107.079-.234.139-.382.181s-.313.062-.496.062c-.165 0-.327-.021-.487-.064a1.486 1.486 0 0 1-.437-.199c-.13-.088-.233-.201-.311-.338s-.117-.3-.117-.487h.688c0 .104.016.191.048.263s.077.13.135.174c.059.044.13.076.21.096.082.02.172.03.27.03a.745.745 0 0 0 .293-.05.356.356 0 0 0 .228-.341zm2.641-2.458v3.329h-.684v-3.329h.684zm1.024 0v.537h-2.716v-.537h2.716zm2.625 2.794v.535h-1.772v-.535h1.772zm-1.548-2.794v3.329h-.686v-3.329h.686zm1.317 1.356v.521h-1.541v-.521h1.541zm.229-1.356v.537h-1.77v-.537h1.77zm.402 0h1.242c.255 0 .473.038.656.114.184.076.326.189.425.338s.149.333.149.551c0 .178-.03.332-.091.46a.848.848 0 0 1-.254.318 1.295 1.295 0 0 1-.382.201l-.217.114h-1.079l-.005-.535h.803c.12 0 .22-.021.3-.064s.139-.102.178-.178a.552.552 0 0 0 .062-.265c0-.107-.02-.199-.059-.277s-.1-.137-.181-.178-.182-.062-.304-.062h-.556v2.792h-.686v-3.329zm1.862 3.329-.759-1.484.725-.005.768 1.457v.032h-.734zm3.601-1.186h-.848v-.535h.848a.69.69 0 0 0 .32-.064c.082-.044.143-.105.181-.183s.057-.165.057-.263c0-.099-.019-.191-.057-.277s-.098-.154-.181-.206-.189-.078-.32-.078h-.611v2.792h-.686v-3.329h1.297c.261 0 .484.047.67.142.187.093.331.222.43.386s.149.353.149.565c0 .215-.05.401-.149.558s-.242.278-.43.364a1.602 1.602 0 0 1-.67.128zm3.956.651v.535H40.39v-.535h1.772zm-1.548-2.794v3.329h-.686v-3.329h.686zm1.317 1.356v.521H40.39v-.521h1.541zm.229-1.356v.537h-1.77v-.537h1.77zm1.936 0v3.329h-.684v-3.329h.684zm1.025 0v.537h-2.716v-.537h2.716zm2.625 2.794v.535h-1.772v-.535h1.772zm-1.548-2.794v3.329h-.686v-3.329h.686zm1.317 1.356v.521h-1.541v-.521h1.541zm.229-1.356v.537h-1.77v-.537h1.77zm.402 0h1.242c.255 0 .473.038.656.114.184.076.326.189.425.338s.149.333.149.551c0 .178-.031.332-.091.46a.848.848 0 0 1-.254.318 1.295 1.295 0 0 1-.382.201l-.217.114h-1.079l-.005-.535h.803c.12 0 .22-.021.3-.064s.139-.102.178-.178a.552.552 0 0 0 .062-.265c0-.107-.02-.199-.059-.277s-.1-.137-.181-.178a.669.669 0 0 0-.304-.062h-.556v2.792h-.686v-3.329zm1.861 3.329-.759-1.484.725-.005.768 1.457v.032h-.734zm2.872-.871a.447.447 0 0 0-.027-.16.308.308 0 0 0-.096-.133c-.047-.041-.114-.082-.199-.121s-.196-.081-.332-.123a4.267 4.267 0 0 1-.43-.165 1.775 1.775 0 0 1-.357-.213.952.952 0 0 1-.242-.286.786.786 0 0 1-.087-.377c0-.139.03-.264.091-.377a.872.872 0 0 1 .256-.293c.11-.082.239-.146.389-.19.151-.044.316-.066.496-.066.245 0 .46.044.642.133s.325.21.425.364c.102.154.153.33.153.528h-.681a.513.513 0 0 0-.062-.256.421.421 0 0 0-.183-.176.648.648 0 0 0-.306-.064.7.7 0 0 0-.297.055.393.393 0 0 0-.178.144.351.351 0 0 0-.059.201c0 .056.014.107.041.153.029.046.072.088.128.128s.126.077.208.112c.082.035.178.069.286.103.181.055.341.117.478.185.139.069.255.146.348.231a.851.851 0 0 1 .281.658c0 .145-.028.274-.085.389s-.138.211-.245.29c-.107.079-.234.139-.382.181s-.313.062-.496.062c-.165 0-.327-.021-.487-.064a1.486 1.486 0 0 1-.437-.199c-.13-.088-.233-.201-.311-.338s-.117-.3-.117-.487h.688c0 .104.016.191.048.263s.077.13.135.174c.059.044.13.076.21.096.082.02.172.03.27.03a.745.745 0 0 0 .293-.05.356.356 0 0 0 .228-.341z"/></svg>